<?xml version="1.0" encoding="utf-8"?>
<!-- Generator: Adobe Illustrator 22.1.0, SVG Export Plug-In . SVG Version: 6.00 Build 0)  -->
<svg version="1.1" id="Layer_1" xmlns="http://www.w3.org/2000/svg" xmlns:xlink="http://www.w3.org/1999/xlink" x="0px" y="0px"
	 viewBox="0 0 78.7 73" style="enable-background:new 0 0 78.7 73;" xml:space="preserve">
<style type="text/css">
	.st0{fill:url(#SVGID_1_);}
	.st1{fill:#FFFFFF;}
</style>
<g>
	<linearGradient id="SVGID_1_" gradientUnits="userSpaceOnUse" x1="39.3295" y1="-4.6597" x2="39.3295" y2="73.9993">
		<stop  offset="0" style="stop-color:#B0173E"/>
		<stop  offset="1" style="stop-color:#DD0070"/>
	</linearGradient>
	<path class="st0" d="M77.4,23.8c-2.9,3-6.6,5.3-10.8,6.4c-3.2,0.9-6.5,1.1-9.6,0.6c-4.5-0.6-8.4-2.3-11.1-3.9
		c-10.9-6-24.7-16-38.2-8.6C11.2,11.2,14.4,5.3,19,0C7.6,6.9,0,19.4,0,33.7C0,55.4,17.6,73,39.3,73c21.7,0,39.3-17.6,39.3-39.3
		C78.7,30.3,78.2,27,77.4,23.8z"/>
	<g>
		<rect x="33.5" y="33.6" class="st1" width="1.9" height="1.4"/>
		<path class="st1" d="M14.6,42.3c0.7,0,1.5-0.3,1.9-0.9h0v0.7h1.9v-5l1.8,5H22l1.1-2.9c0.1,1.5,1.2,3.1,3.4,3.1
			c1.6,0,2.6-0.9,3.1-2v1.8h1.9v-3.5c0-1,0.6-1.1,1.5-1.2v-1.9c-1.1,0-1.4,0.6-1.6,0.9h0v-0.7h-1.8v1.7c-0.5-1.1-1.5-2-3.1-2
			c-1.1,0-1.9,0.4-2.5,1l0.3-0.8h-2l-1.2,4h0l-1.2-4h-1.5h-0.5h-1.4v0.7h0c-0.2-0.4-0.8-0.9-1.9-0.9c-1.7,0-3.2,1.3-3.2,3.4
			C11.4,40.7,12.5,42.3,14.6,42.3z M26.4,37.3c0.8,0,1.5,0.7,1.5,1.6c0,0.9-0.7,1.6-1.5,1.6c-0.8,0-1.5-0.7-1.5-1.6
			C24.9,38,25.6,37.3,26.4,37.3z M14.8,37.3c1.1,0,1.6,0.8,1.6,1.6c0,0.6-0.4,1.6-1.6,1.6c-1.1,0-1.6-1-1.6-1.6
			C13.3,38.2,13.7,37.3,14.8,37.3z"/>
		<rect x="33.5" y="35.7" class="st1" width="1.9" height="6.4"/>
		<polygon class="st1" points="36.8,42.1 38.7,42.1 38.7,37.2 39.6,37.2 39.6,35.7 38.7,35.7 38.7,33.6 36.8,33.6 36.8,35.7 
			35.9,35.7 35.9,37.2 36.8,37.2 		"/>
		<path class="st1" d="M43.2,42.3c0.7,0,1.3-0.2,1.8-0.6c0.5-0.4,1-0.9,1.3-1.6h-2c-0.3,0.3-0.6,0.6-1.2,0.6c-0.7,0-1.4-0.4-1.5-1.2
			h4.8c0-0.1,0-0.3,0-0.5c0-1.9-1.4-3.5-3.4-3.5s-3.3,1.6-3.3,3.4C39.8,40.8,41.4,42.3,43.2,42.3z M43.2,37.1c1,0,1.4,0.7,1.4,1.1
			h-2.9C41.8,37.8,42.2,37.1,43.2,37.1z"/>
		<path class="st1" d="M29.6,46.6c-0.2-0.2-0.7-0.8-1.9-0.8c-1.4,0-2.8,0.9-3.1,2.6c-0.3-1.5-1.6-2.6-3.3-2.6
			c-1.6,0-2.8,1.1-3.2,2.5c0-0.9-0.2-1.3-0.7-1.8c-0.5-0.5-1.2-0.6-1.7-0.6c-1,0-1.6,0.5-2,1.1c-0.5-0.9-1.3-1.1-1.8-1.1
			c-1.2,0-1.6,0.6-1.8,0.9h0V46H8.4v6.4h1.9V49c0-0.4,0-1.4,1.1-1.4c1,0,1,1,1,1.3v3.5h1.9v-3.5c0-0.4,0-1.3,1.1-1.3
			c1,0,1,0.9,1,1.4v3.4h1.9v-2.2c0.4,1.4,1.7,2.4,3.2,2.4c0.7,0,1.3-0.2,1.8-0.6c0.5-0.4,1-0.9,1.3-1.6h-2C22.3,50.7,22,51,21.4,51
			c-0.7,0-1.4-0.4-1.5-1.2h4.7c0.2,1.6,1.4,2.8,3.1,2.8c1.3,0,1.7-0.6,1.9-0.9h0v0.7h1.8v-8.5h-1.9V46.6z M19.9,48.5
			c0.1-0.4,0.5-1.1,1.4-1.1c1,0,1.4,0.7,1.4,1.1H19.9z M28.1,50.8c-0.9,0-1.6-0.7-1.6-1.6c0-0.7,0.5-1.6,1.6-1.6
			c1.1,0,1.6,0.8,1.6,1.6C29.7,49.9,29.3,50.8,28.1,50.8z"/>
		<rect x="32.1" y="46" class="st1" width="1.9" height="6.4"/>
		<rect x="32.1" y="43.9" class="st1" width="1.9" height="1.4"/>
		<path class="st1" d="M38.7,49.6c0,1-0.5,1.3-1.1,1.3c-1,0-1-0.8-1-1.3v-3.5h-1.9v3.8c0,0.9,0.1,1.3,0.6,2c0.6,0.7,1.5,0.8,1.9,0.8
			c0.5,0,1.3-0.1,1.7-0.9h0v0.7h1.8v-6.4h-1.9V49.6z"/>
		<path class="st1" d="M50.3,46.5c-0.5-0.5-1.2-0.6-1.7-0.6c-1,0-1.6,0.5-2,1.1c-0.5-0.9-1.3-1.1-1.8-1.1c-1.2,0-1.6,0.6-1.8,0.9h0
			V46h-1.8v6.4h1.9V49c0-0.4,0-1.4,1.1-1.4c1,0,1,1,1,1.3v3.5h1.9v-3.5c0-0.4,0-1.3,1.1-1.3c1,0,1,0.9,1,1.4v3.4H51v-3.5
			C51,47.5,50.9,47.1,50.3,46.5z"/>
		<path class="st1" d="M8.4,42.1h1.9v-4.9h1.1v-1.4h-1.1v-0.3c0-0.5,0.4-0.6,0.6-0.6h0.8v-1.4h-0.9c-0.9,0-2.4,0.2-2.4,2v0.3H7.7
			v1.4h0.7V42.1z"/>
	</g>
</g>
</svg>
